<?xml version="1.0" encoding="utf-8" ?>
<svg baseProfile="full" height="106mm" version="1.1" viewBox="0 0 744.094470 375.590540" width="210mm" xmlns="http://www.w3.org/2000/svg" xmlns:ev="http://www.w3.org/2001/xml-events" xmlns:xlink="http://www.w3.org/1999/xlink"><defs /><rect fill="white" height="100%" width="100%" x="0" y="0" /><g><text font-family="Arial,Helvetica" font-size="12" font-weight="bold" x="17.71654" y="38.97638">Récépissé</text><text font-family="Arial,Helvetica" font-size="8" font-weight="bold" x="17.71654" y="56.69291">Compte / Payable à</text><text font-family="Arial,Helvetica" font-size="10" x="17.71654" y="69.09449">CH93 0076 2011 6238 5295 7</text><text font-family="Arial,Helvetica" font-size="10" x="17.71654" y="81.49606">CSS Assurance SA</text><text font-family="Arial,Helvetica" font-size="10" x="17.71654" y="93.89764">Tribschenstrasse 21</text><text font-family="Arial,Helvetica" font-size="10" x="17.71654" y="106.29921">CH-6005 Lucerne</text><text font-family="Arial,Helvetica" font-size="8" font-weight="bold" x="17.71654" y="122.24409">Payable par</text><text font-family="Arial,Helvetica" font-size="10" x="17.71654" y="134.64567">BECO Fiduciaire SA</text><text font-family="Arial,Helvetica" font-size="10" x="17.71654" y="147.04724">Rue du Rhone 69</text><text font-family="Arial,Helvetica" font-size="10" x="17.71654" y="159.44881">CH-1204 Geneve</text><text font-family="Arial,Helvetica" font-size="8" font-weight="bold" x="17.71654" y="258.66141">Monnaie</text><text font-family="Arial,Helvetica" font-size="8" font-weight="bold" x="60.23622" y="258.66141">Montant</text><text font-family="Arial,Helvetica" font-size="10" x="17.71654" y="276.37795">CHF</text><text font-family="Arial,Helvetica" font-size="10" x="60.23622" y="276.37795">389.70</text><text font-family="Arial,Helvetica" font-size="8" font-weight="bold" text-anchor="end" x="201.96849" y="308.26771">Point de dépôt</text><line fill="none" stroke="black" stroke-dasharray="2 2" x1="0" x2="744.09447" y1="4.04291" y2="4.04291" /><path d="m 0.764814,4.283977 c 0.337358,0.143009 0.862476,-0.115279 0.775145,-0.523225 -0.145918,-0.497473 -0.970289,-0.497475 -1.116209,-2e-6 -0.0636,0.23988 0.128719,0.447618 0.341064,0.523227 z m 3.875732,-1.917196 c 1.069702,0.434082 2.139405,0.868164 3.209107,1.302246 -0.295734,0.396158 -0.866482,0.368049 -1.293405,0.239509 -0.876475,-0.260334 -1.71099,-0.639564 -2.563602,-0.966653 -0.132426,-0.04295 -0.265139,-0.124595 -0.397393,-0.144327 -0.549814,0.22297 -1.09134,0.477143 -1.667719,0.62213 -0.07324,0.232838 0.150307,0.589809 -0.07687,0.842328 -0.311347,0.532157 -1.113542,0.624698 -1.561273,0.213165 -0.384914,-0.301216 -0.379442,-0.940948 7e-6,-1.245402 0.216628,-0.191603 0.506973,-0.286636 0.794095,-0.258382 0.496639,0.01219 1.013014,-0.04849 1.453829,-0.289388 0.437126,-0.238777 0.07006,-0.726966 -0.300853,-0.765416 -0.420775,-0.157424 -0.870816,-0.155853 -1.312747,-0.158623 -0.527075,-0.0016 -1.039244,-0.509731 -0.904342,-1.051293 0.137956,-0.620793 0.952738,-0.891064 1.47649,-0.573851 0.371484,0.188118 0.594679,0.675747 0.390321,1.062196 0.09829,0.262762 0.586716,0.204086 0.826177,0.378204 0.301582,0.119237 0.600056,0.246109 0.899816,0.36981 0.89919,-0.349142 1.785653,-0.732692 2.698347,-1.045565 0.459138,-0.152333 1.033472,-0.283325 1.442046,0.05643 0.217451,0.135635 -0.06954,0.160294 -0.174725,0.220936 -0.979101,0.397316 -1.958202,0.794633 -2.937303,1.19195 z m -3.44165,-1.917196 c -0.338434,-0.14399 -0.861225,0.116943 -0.775146,0.524517 0.143274,0.477916 0.915235,0.499056 1.10329,0.04328 0.09674,-0.247849 -0.09989,-0.490324 -0.328144,-0.567796 z" style="fill:#000000;fill-opacity:1;fill-rule:nonzero;stroke:none" transform="scale(1.9) translate(24,0)" /><line fill="none" stroke="black" stroke-dasharray="2 2" x1="219.68503" x2="219.68503" y1="3.54331" y2="372.04724" /><path d="m 0.764814,4.283977 c 0.337358,0.143009 0.862476,-0.115279 0.775145,-0.523225 -0.145918,-0.497473 -0.970289,-0.497475 -1.116209,-2e-6 -0.0636,0.23988 0.128719,0.447618 0.341064,0.523227 z m 3.875732,-1.917196 c 1.069702,0.434082 2.139405,0.868164 3.209107,1.302246 -0.295734,0.396158 -0.866482,0.368049 -1.293405,0.239509 -0.876475,-0.260334 -1.71099,-0.639564 -2.563602,-0.966653 -0.132426,-0.04295 -0.265139,-0.124595 -0.397393,-0.144327 -0.549814,0.22297 -1.09134,0.477143 -1.667719,0.62213 -0.07324,0.232838 0.150307,0.589809 -0.07687,0.842328 -0.311347,0.532157 -1.113542,0.624698 -1.561273,0.213165 -0.384914,-0.301216 -0.379442,-0.940948 7e-6,-1.245402 0.216628,-0.191603 0.506973,-0.286636 0.794095,-0.258382 0.496639,0.01219 1.013014,-0.04849 1.453829,-0.289388 0.437126,-0.238777 0.07006,-0.726966 -0.300853,-0.765416 -0.420775,-0.157424 -0.870816,-0.155853 -1.312747,-0.158623 -0.527075,-0.0016 -1.039244,-0.509731 -0.904342,-1.051293 0.137956,-0.620793 0.952738,-0.891064 1.47649,-0.573851 0.371484,0.188118 0.594679,0.675747 0.390321,1.062196 0.09829,0.262762 0.586716,0.204086 0.826177,0.378204 0.301582,0.119237 0.600056,0.246109 0.899816,0.36981 0.89919,-0.349142 1.785653,-0.732692 2.698347,-1.045565 0.459138,-0.152333 1.033472,-0.283325 1.442046,0.05643 0.217451,0.135635 -0.06954,0.160294 -0.174725,0.220936 -0.979101,0.397316 -1.958202,0.794633 -2.937303,1.19195 z m -3.44165,-1.917196 c -0.338434,-0.14399 -0.861225,0.116943 -0.775146,0.524517 0.143274,0.477916 0.915235,0.499056 1.10329,0.04328 0.09674,-0.247849 -0.09989,-0.490324 -0.328144,-0.567796 z" style="fill:#000000;fill-opacity:1;fill-rule:nonzero;stroke:none" transform="scale(1.9) translate(118,40) rotate(90)" /><text font-family="Arial,Helvetica" font-size="12" font-weight="bold" x="237.40157" y="38.97638">Section paiement</text><path d="M0,0H1V1H0zM1,0H2V1H1zM2,0H3V1H2zM3,0H4V1H3zM4,0H5V1H4zM5,0H6V1H5zM6,0H7V1H6zM10,0H11V1H10zM13,0H14V1H13zM14,0H15V1H14zM15,0H16V1H15zM19,0H20V1H19zM20,0H21V1H20zM21,0H22V1H21zM22,0H23V1H22zM23,0H24V1H23zM26,0H27V1H26zM27,0H28V1H27zM28,0H29V1H28zM30,0H31V1H30zM31,0H32V1H31zM32,0H33V1H32zM33,0H34V1H33zM35,0H36V1H35zM36,0H37V1H36zM37,0H38V1H37zM38,0H39V1H38zM39,0H40V1H39zM41,0H42V1H41zM43,0H44V1H43zM44,0H45V1H44zM46,0H47V1H46zM47,0H48V1H47zM48,0H49V1H48zM51,0H52V1H51zM52,0H53V1H52zM54,0H55V1H54zM55,0H56V1H55zM56,0H57V1H56zM57,0H58V1H57zM58,0H59V1H58zM59,0H60V1H59zM60,0H61V1H60zM0,1H1V2H0zM6,1H7V2H6zM8,1H9V2H8zM12,1H13V2H12zM13,1H14V2H13zM14,1H15V2H14zM16,1H17V2H16zM17,1H18V2H17zM18,1H19V2H18zM19,1H20V2H19zM21,1H22V2H21zM22,1H23V2H22zM23,1H24V2H23zM25,1H26V2H25zM27,1H28V2H27zM31,1H32V2H31zM32,1H33V2H32zM33,1H34V2H33zM35,1H36V2H35zM36,1H37V2H36zM37,1H38V2H37zM40,1H41V2H40zM42,1H43V2H42zM43,1H44V2H43zM46,1H47V2H46zM47,1H48V2H47zM48,1H49V2H48zM51,1H52V2H51zM52,1H53V2H52zM54,1H55V2H54zM60,1H61V2H60zM0,2H1V3H0zM2,2H3V3H2zM3,2H4V3H3zM4,2H5V3H4zM6,2H7V3H6zM8,2H9V3H8zM9,2H10V3H9zM14,2H15V3H14zM18,2H19V3H18zM19,2H20V3H19zM20,2H21V3H20zM26,2H27V3H26zM27,2H28V3H27zM32,2H33V3H32zM33,2H34V3H33zM35,2H36V3H35zM36,2H37V3H36zM39,2H40V3H39zM45,2H46V3H45zM49,2H50V3H49zM50,2H51V3H50zM51,2H52V3H51zM52,2H53V3H52zM54,2H55V3H54zM56,2H57V3H56zM57,2H58V3H57zM58,2H59V3H58zM60,2H61V3H60zM0,3H1V4H0zM2,3H3V4H2zM3,3H4V4H3zM4,3H5V4H4zM6,3H7V4H6zM8,3H9V4H8zM9,3H10V4H9zM11,3H12V4H11zM12,3H13V4H12zM13,3H14V4H13zM16,3H17V4H16zM17,3H18V4H17zM18,3H19V4H18zM20,3H21V4H20zM21,3H22V4H21zM24,3H25V4H24zM25,3H26V4H25zM27,3H28V4H27zM28,3H29V4H28zM31,3H32V4H31zM33,3H34V4H33zM34,3H35V4H34zM35,3H36V4H35zM37,3H38V4H37zM38,3H39V4H38zM46,3H47V4H46zM47,3H48V4H47zM48,3H49V4H48zM49,3H50V4H49zM50,3H51V4H50zM52,3H53V4H52zM54,3H55V4H54zM56,3H57V4H56zM57,3H58V4H57zM58,3H59V4H58zM60,3H61V4H60zM0,4H1V5H0zM2,4H3V5H2zM3,4H4V5H3zM4,4H5V5H4zM6,4H7V5H6zM10,4H11V5H10zM11,4H12V5H11zM13,4H14V5H13zM14,4H15V5H14zM16,4H17V5H16zM17,4H18V5H17zM20,4H21V5H20zM21,4H22V5H21zM23,4H24V5H23zM24,4H25V5H24zM26,4H27V5H26zM28,4H29V5H28zM29,4H30V5H29zM30,4H31V5H30zM31,4H32V5H31zM32,4H33V5H32zM33,4H34V5H33zM36,4H37V5H36zM39,4H40V5H39zM42,4H43V5H42zM48,4H49V5H48zM50,4H51V5H50zM51,4H52V5H51zM54,4H55V5H54zM56,4H57V5H56zM57,4H58V5H57zM58,4H59V5H58zM60,4H61V5H60zM0,5H1V6H0zM6,5H7V6H6zM11,5H12V6H11zM15,5H16V6H15zM17,5H18V6H17zM18,5H19V6H18zM21,5H22V6H21zM23,5H24V6H23zM24,5H25V6H24zM25,5H26V6H25zM27,5H28V6H27zM28,5H29V6H28zM32,5H33V6H32zM33,5H34V6H33zM35,5H36V6H35zM37,5H38V6H37zM39,5H40V6H39zM41,5H42V6H41zM42,5H43V6H42zM46,5H47V6H46zM47,5H48V6H47zM50,5H51V6H50zM54,5H55V6H54zM60,5H61V6H60zM0,6H1V7H0zM1,6H2V7H1zM2,6H3V7H2zM3,6H4V7H3zM4,6H5V7H4zM5,6H6V7H5zM6,6H7V7H6zM8,6H9V7H8zM10,6H11V7H10zM12,6H13V7H12zM14,6H15V7H14zM16,6H17V7H16zM18,6H19V7H18zM20,6H21V7H20zM22,6H23V7H22zM24,6H25V7H24zM26,6H27V7H26zM28,6H29V7H28zM30,6H31V7H30zM32,6H33V7H32zM34,6H35V7H34zM36,6H37V7H36zM38,6H39V7H38zM40,6H41V7H40zM42,6H43V7H42zM44,6H45V7H44zM46,6H47V7H46zM48,6H49V7H48zM50,6H51V7H50zM52,6H53V7H52zM54,6H55V7H54zM55,6H56V7H55zM56,6H57V7H56zM57,6H58V7H57zM58,6H59V7H58zM59,6H60V7H59zM60,6H61V7H60zM8,7H9V8H8zM9,7H10V8H9zM10,7H11V8H10zM14,7H15V8H14zM16,7H17V8H16zM17,7H18V8H17zM21,7H22V8H21zM28,7H29V8H28zM32,7H33V8H32zM34,7H35V8H34zM35,7H36V8H35zM36,7H37V8H36zM38,7H39V8H38zM39,7H40V8H39zM42,7H43V8H42zM46,7H47V8H46zM49,7H50V8H49zM50,7H51V8H50zM0,8H1V9H0zM6,8H7V9H6zM8,8H9V9H8zM12,8H13V9H12zM16,8H17V9H16zM17,8H18V9H17zM18,8H19V9H18zM20,8H21V9H20zM21,8H22V9H21zM22,8H23V9H22zM24,8H25V9H24zM26,8H27V9H26zM28,8H29V9H28zM29,8H30V9H29zM30,8H31V9H30zM31,8H32V9H31zM32,8H33V9H32zM33,8H34V9H33zM34,8H35V9H34zM36,8H37V9H36zM39,8H40V9H39zM41,8H42V9H41zM42,8H43V9H42zM43,8H44V9H43zM44,8H45V9H44zM45,8H46V9H45zM46,8H47V9H46zM47,8H48V9H47zM49,8H50V9H49zM51,8H52V9H51zM52,8H53V9H52zM53,8H54V9H53zM54,8H55V9H54zM57,8H58V9H57zM58,8H59V9H58zM59,8H60V9H59zM1,9H2V10H1zM2,9H3V10H2zM3,9H4V10H3zM4,9H5V10H4zM5,9H6V10H5zM8,9H9V10H8zM9,9H10V10H9zM10,9H11V10H10zM11,9H12V10H11zM13,9H14V10H13zM14,9H15V10H14zM17,9H18V10H17zM18,9H19V10H18zM19,9H20V10H19zM22,9H23V10H22zM26,9H27V10H26zM28,9H29V10H28zM31,9H32V10H31zM32,9H33V10H32zM34,9H35V10H34zM37,9H38V10H37zM40,9H41V10H40zM41,9H42V10H41zM42,9H43V10H42zM48,9H49V10H48zM50,9H51V10H50zM51,9H52V10H51zM52,9H53V10H52zM54,9H55V10H54zM58,9H59V10H58zM59,9H60V10H59zM60,9H61V10H60zM2,10H3V11H2zM6,10H7V11H6zM7,10H8V11H7zM8,10H9V11H8zM9,10H10V11H9zM11,10H12V11H11zM12,10H13V11H12zM14,10H15V11H14zM16,10H17V11H16zM18,10H19V11H18zM20,10H21V11H20zM22,10H23V11H22zM23,10H24V11H23zM24,10H25V11H24zM25,10H26V11H25zM27,10H28V11H27zM28,10H29V11H28zM43,10H44V11H43zM45,10H46V11H45zM47,10H48V11H47zM51,10H52V11H51zM53,10H54V11H53zM54,10H55V11H54zM56,10H57V11H56zM57,10H58V11H57zM60,10H61V11H60zM0,11H1V12H0zM1,11H2V12H1zM3,11H4V12H3zM4,11H5V12H4zM5,11H6V12H5zM8,11H9V12H8zM9,11H10V12H9zM10,11H11V12H10zM12,11H13V12H12zM13,11H14V12H13zM15,11H16V12H15zM16,11H17V12H16zM18,11H19V12H18zM22,11H23V12H22zM26,11H27V12H26zM28,11H29V12H28zM29,11H30V12H29zM34,11H35V12H34zM35,11H36V12H35zM36,11H37V12H36zM38,11H39V12H38zM39,11H40V12H39zM40,11H41V12H40zM44,11H45V12H44zM45,11H46V12H45zM49,11H50V12H49zM53,11H54V12H53zM54,11H55V12H54zM55,11H56V12H55zM56,11H57V12H56zM57,11H58V12H57zM58,11H59V12H58zM0,12H1V13H0zM1,12H2V13H1zM2,12H3V13H2zM4,12H5V13H4zM6,12H7V13H6zM7,12H8V13H7zM9,12H10V13H9zM10,12H11V13H10zM11,12H12V13H11zM12,12H13V13H12zM13,12H14V13H13zM14,12H15V13H14zM15,12H16V13H15zM17,12H18V13H17zM21,12H22V13H21zM22,12H23V13H22zM23,12H24V13H23zM24,12H25V13H24zM25,12H26V13H25zM27,12H28V13H27zM28,12H29V13H28zM29,12H30V13H29zM32,12H33V13H32zM33,12H34V13H33zM35,12H36V13H35zM36,12H37V13H36zM37,12H38V13H37zM39,12H40V13H39zM40,12H41V13H40zM41,12H42V13H41zM43,12H44V13H43zM44,12H45V13H44zM45,12H46V13H45zM47,12H48V13H47zM48,12H49V13H48zM49,12H50V13H49zM50,12H51V13H50zM52,12H53V13H52zM53,12H54V13H53zM54,12H55V13H54zM55,12H56V13H55zM56,12H57V13H56zM57,12H58V13H57zM58,12H59V13H58zM59,12H60V13H59zM3,13H4V14H3zM4,13H5V14H4zM8,13H9V14H8zM9,13H10V14H9zM11,13H12V14H11zM18,13H19V14H18zM19,13H20V14H19zM20,13H21V14H20zM21,13H22V14H21zM22,13H23V14H22zM24,13H25V14H24zM30,13H31V14H30zM40,13H41V14H40zM41,13H42V14H41zM42,13H43V14H42zM45,13H46V14H45zM46,13H47V14H46zM48,13H49V14H48zM49,13H50V14H49zM50,13H51V14H50zM54,13H55V14H54zM56,13H57V14H56zM57,13H58V14H57zM60,13H61V14H60zM3,14H4V15H3zM4,14H5V15H4zM6,14H7V15H6zM9,14H10V15H9zM12,14H13V15H12zM14,14H15V15H14zM17,14H18V15H17zM18,14H19V15H18zM21,14H22V15H21zM24,14H25V15H24zM26,14H27V15H26zM31,14H32V15H31zM32,14H33V15H32zM35,14H36V15H35zM36,14H37V15H36zM37,14H38V15H37zM40,14H41V15H40zM42,14H43V15H42zM44,14H45V15H44zM45,14H46V15H45zM46,14H47V15H46zM48,14H49V15H48zM50,14H51V15H50zM51,14H52V15H51zM53,14H54V15H53zM54,14H55V15H54zM56,14H57V15H56zM57,14H58V15H57zM59,14H60V15H59zM0,15H1V16H0zM1,15H2V16H1zM2,15H3V16H2zM3,15H4V16H3zM5,15H6V16H5zM7,15H8V16H7zM9,15H10V16H9zM11,15H12V16H11zM12,15H13V16H12zM15,15H16V16H15zM22,15H23V16H22zM24,15H25V16H24zM28,15H29V16H28zM29,15H30V16H29zM34,15H35V16H34zM36,15H37V16H36zM37,15H38V16H37zM38,15H39V16H38zM40,15H41V16H40zM41,15H42V16H41zM43,15H44V16H43zM44,15H45V16H44zM45,15H46V16H45zM51,15H52V16H51zM52,15H53V16H52zM54,15H55V16H54zM56,15H57V16H56zM57,15H58V16H57zM0,16H1V17H0zM1,16H2V17H1zM5,16H6V17H5zM6,16H7V17H6zM8,16H9V17H8zM9,16H10V17H9zM10,16H11V17H10zM12,16H13V17H12zM13,16H14V17H13zM14,16H15V17H14zM17,16H18V17H17zM19,16H20V17H19zM21,16H22V17H21zM23,16H24V17H23zM24,16H25V17H24zM25,16H26V17H25zM26,16H27V17H26zM27,16H28V17H27zM28,16H29V17H28zM29,16H30V17H29zM30,16H31V17H30zM33,16H34V17H33zM34,16H35V17H34zM35,16H36V17H35zM40,16H41V17H40zM42,16H43V17H42zM45,16H46V17H45zM46,16H47V17H46zM47,16H48V17H47zM48,16H49V17H48zM50,16H51V17H50zM51,16H52V17H51zM54,16H55V17H54zM55,16H56V17H55zM57,16H58V17H57zM59,16H60V17H59zM60,16H61V17H60zM0,17H1V18H0zM1,17H2V18H1zM2,17H3V18H2zM4,17H5V18H4zM8,17H9V18H8zM10,17H11V18H10zM11,17H12V18H11zM13,17H14V18H13zM16,17H17V18H16zM17,17H18V18H17zM18,17H19V18H18zM19,17H20V18H19zM23,17H24V18H23zM28,17H29V18H28zM33,17H34V18H33zM34,17H35V18H34zM38,17H39V18H38zM40,17H41V18H40zM42,17H43V18H42zM44,17H45V18H44zM45,17H46V18H45zM48,17H49V18H48zM51,17H52V18H51zM52,17H53V18H52zM53,17H54V18H53zM56,17H57V18H56zM59,17H60V18H59zM60,17H61V18H60zM0,18H1V19H0zM1,18H2V19H1zM4,18H5V19H4zM5,18H6V19H5zM6,18H7V19H6zM8,18H9V19H8zM12,18H13V19H12zM13,18H14V19H13zM15,18H16V19H15zM19,18H20V19H19zM21,18H22V19H21zM27,18H28V19H27zM29,18H30V19H29zM33,18H34V19H33zM34,18H35V19H34zM37,18H38V19H37zM38,18H39V19H38zM42,18H43V19H42zM43,18H44V19H43zM44,18H45V19H44zM45,18H46V19H45zM48,18H49V19H48zM50,18H51V19H50zM51,18H52V19H51zM54,18H55V19H54zM55,18H56V19H55zM60,18H61V19H60zM0,19H1V20H0zM1,19H2V20H1zM2,19H3V20H2zM5,19H6V20H5zM7,19H8V20H7zM8,19H9V20H8zM11,19H12V20H11zM12,19H13V20H12zM13,19H14V20H13zM15,19H16V20H15zM18,19H19V20H18zM19,19H20V20H19zM20,19H21V20H20zM22,19H23V20H22zM24,19H25V20H24zM26,19H27V20H26zM27,19H28V20H27zM28,19H29V20H28zM30,19H31V20H30zM32,19H33V20H32zM33,19H34V20H33zM34,19H35V20H34zM35,19H36V20H35zM36,19H37V20H36zM38,19H39V20H38zM41,19H42V20H41zM43,19H44V20H43zM47,19H48V20H47zM48,19H49V20H48zM49,19H50V20H49zM50,19H51V20H50zM54,19H55V20H54zM55,19H56V20H55zM57,19H58V20H57zM1,20H2V21H1zM4,20H5V21H4zM5,20H6V21H5zM6,20H7V21H6zM8,20H9V21H8zM11,20H12V21H11zM13,20H14V21H13zM14,20H15V21H14zM15,20H16V21H15zM16,20H17V21H16zM20,20H21V21H20zM25,20H26V21H25zM26,20H27V21H26zM27,20H28V21H27zM28,20H29V21H28zM29,20H30V21H29zM30,20H31V21H30zM31,20H32V21H31zM33,20H34V21H33zM36,20H37V21H36zM38,20H39V21H38zM40,20H41V21H40zM45,20H46V21H45zM46,20H47V21H46zM48,20H49V21H48zM51,20H52V21H51zM54,20H55V21H54zM55,20H56V21H55zM56,20H57V21H56zM59,20H60V21H59zM1,21H2V22H1zM2,21H3V22H2zM7,21H8V22H7zM9,21H10V22H9zM12,21H13V22H12zM15,21H16V22H15zM17,21H18V22H17zM18,21H19V22H18zM21,21H22V22H21zM23,21H24V22H23zM24,21H25V22H24zM26,21H27V22H26zM28,21H29V22H28zM30,21H31V22H30zM32,21H33V22H32zM38,21H39V22H38zM40,21H41V22H40zM41,21H42V22H41zM45,21H46V22H45zM46,21H47V22H46zM49,21H50V22H49zM50,21H51V22H50zM52,21H53V22H52zM53,21H54V22H53zM56,21H57V22H56zM1,22H2V23H1zM3,22H4V23H3zM4,22H5V23H4zM5,22H6V23H5zM6,22H7V23H6zM7,22H8V23H7zM9,22H10V23H9zM10,22H11V23H10zM13,22H14V23H13zM15,22H16V23H15zM16,22H17V23H16zM18,22H19V23H18zM19,22H20V23H19zM21,22H22V23H21zM24,22H25V23H24zM25,22H26V23H25zM27,22H28V23H27zM29,22H30V23H29zM30,22H31V23H30zM32,22H33V23H32zM37,22H38V23H37zM40,22H41V23H40zM42,22H43V23H42zM44,22H45V23H44zM45,22H46V23H45zM46,22H47V23H46zM49,22H50V23H49zM50,22H51V23H50zM51,22H52V23H51zM53,22H54V23H53zM54,22H55V23H54zM55,22H56V23H55zM57,22H58V23H57zM58,22H59V23H58zM59,22H60V23H59zM1,23H2V24H1zM3,23H4V24H3zM9,23H10V24H9zM10,23H11V24H10zM11,23H12V24H11zM13,23H14V24H13zM14,23H15V24H14zM16,23H17V24H16zM18,23H19V24H18zM21,23H22V24H21zM23,23H24V24H23zM26,23H27V24H26zM27,23H28V24H27zM28,23H29V24H28zM30,23H31V24H30zM33,23H34V24H33zM34,23H35V24H34zM36,23H37V24H36zM37,23H38V24H37zM38,23H39V24H38zM39,23H40V24H39zM41,23H42V24H41zM42,23H43V24H42zM43,23H44V24H43zM45,23H46V24H45zM47,23H48V24H47zM48,23H49V24H48zM50,23H51V24H50zM54,23H55V24H54zM55,23H56V24H55zM57,23H58V24H57zM2,24H3V25H2zM3,24H4V25H3zM4,24H5V25H4zM5,24H6V25H5zM6,24H7V25H6zM8,24H9V25H8zM12,24H13V25H12zM14,24H15V25H14zM15,24H16V25H15zM16,24H17V25H16zM17,24H18V25H17zM18,24H19V25H18zM19,24H20V25H19zM20,24H21V25H20zM23,24H24V25H23zM24,24H25V25H24zM27,24H28V25H27zM30,24H31V25H30zM32,24H33V25H32zM33,24H34V25H33zM35,24H36V25H35zM37,24H38V25H37zM39,24H40V25H39zM40,24H41V25H40zM41,24H42V25H41zM42,24H43V25H42zM43,24H44V25H43zM45,24H46V25H45zM46,24H47V25H46zM48,24H49V25H48zM49,24H50V25H49zM50,24H51V25H50zM51,24H52V25H51zM52,24H53V25H52zM53,24H54V25H53zM54,24H55V25H54zM55,24H56V25H55zM56,24H57V25H56zM57,24H58V25H57zM58,24H59V25H58zM59,24H60V25H59zM2,25H3V26H2zM3,25H4V26H3zM8,25H9V26H8zM9,25H10V26H9zM10,25H11V26H10zM11,25H12V26H11zM14,25H15V26H14zM15,25H16V26H15zM18,25H19V26H18zM20,25H21V26H20zM21,25H22V26H21zM22,25H23V26H22zM23,25H24V26H23zM26,25H27V26H26zM27,25H28V26H27zM28,25H29V26H28zM29,25H30V26H29zM30,25H31V26H30zM31,25H32V26H31zM33,25H34V26H33zM34,25H35V26H34zM36,25H37V26H36zM37,25H38V26H37zM38,25H39V26H38zM40,25H41V26H40zM44,25H45V26H44zM45,25H46V26H45zM49,25H50V26H49zM50,25H51V26H50zM51,25H52V26H51zM52,25H53V26H52zM54,25H55V26H54zM56,25H57V26H56zM57,25H58V26H57zM60,25H61V26H60zM0,26H1V27H0zM1,26H2V27H1zM4,26H5V27H4zM6,26H7V27H6zM7,26H8V27H7zM10,26H11V27H10zM14,26H15V27H14zM17,26H18V27H17zM18,26H19V27H18zM22,26H23V27H22zM25,26H26V27H25zM33,26H34V27H33zM36,26H37V27H36zM39,26H40V27H39zM40,26H41V27H40zM42,26H43V27H42zM43,26H44V27H43zM45,26H46V27H45zM46,26H47V27H46zM48,26H49V27H48zM49,26H50V27H49zM51,26H52V27H51zM53,26H54V27H53zM56,26H57V27H56zM57,26H58V27H57zM59,26H60V27H59zM60,26H61V27H60zM4,27H5V28H4zM5,27H6V28H5zM7,27H8V28H7zM8,27H9V28H8zM9,27H10V28H9zM10,27H11V28H10zM12,27H13V28H12zM14,27H15V28H14zM18,27H19V28H18zM20,27H21V28H20zM21,27H22V28H21zM23,27H24V28H23zM27,27H28V28H27zM31,27H32V28H31zM32,27H33V28H32zM33,27H34V28H33zM34,27H35V28H34zM37,27H38V28H37zM39,27H40V28H39zM40,27H41V28H40zM47,27H48V28H47zM48,27H49V28H48zM53,27H54V28H53zM54,27H55V28H54zM55,27H56V28H55zM56,27H57V28H56zM58,27H59V28H58zM0,28H1V29H0zM2,28H3V29H2zM4,28H5V29H4zM5,28H6V29H5zM6,28H7V29H6zM7,28H8V29H7zM8,28H9V29H8zM11,28H12V29H11zM13,28H14V29H13zM14,28H15V29H14zM15,28H16V29H15zM16,28H17V29H16zM18,28H19V29H18zM19,28H20V29H19zM22,28H23V29H22zM26,28H27V29H26zM27,28H28V29H27zM28,28H29V29H28zM29,28H30V29H29zM30,28H31V29H30zM31,28H32V29H31zM32,28H33V29H32zM33,28H34V29H33zM35,28H36V29H35zM36,28H37V29H36zM39,28H40V29H39zM42,28H43V29H42zM43,28H44V29H43zM44,28H45V29H44zM46,28H47V29H46zM47,28H48V29H47zM50,28H51V29H50zM51,28H52V29H51zM52,28H53V29H52zM53,28H54V29H53zM54,28H55V29H54zM55,28H56V29H55zM56,28H57V29H56zM0,29H1V30H0zM1,29H2V30H1zM2,29H3V30H2zM3,29H4V30H3zM4,29H5V30H4zM8,29H9V30H8zM10,29H11V30H10zM13,29H14V30H13zM14,29H15V30H14zM15,29H16V30H15zM19,29H20V30H19zM20,29H21V30H20zM21,29H22V30H21zM23,29H24V30H23zM25,29H26V30H25zM28,29H29V30H28zM32,29H33V30H32zM34,29H35V30H34zM36,29H37V30H36zM37,29H38V30H37zM38,29H39V30H38zM40,29H41V30H40zM42,29H43V30H42zM44,29H45V30H44zM45,29H46V30H45zM52,29H53V30H52zM56,29H57V30H56zM58,29H59V30H58zM59,29H60V30H59zM60,29H61V30H60zM0,30H1V31H0zM1,30H2V31H1zM3,30H4V31H3zM4,30H5V31H4zM6,30H7V31H6zM8,30H9V31H8zM9,30H10V31H9zM10,30H11V31H10zM11,30H12V31H11zM12,30H13V31H12zM13,30H14V31H13zM14,30H15V31H14zM19,30H20V31H19zM20,30H21V31H20zM23,30H24V31H23zM25,30H26V31H25zM26,30H27V31H26zM28,30H29V31H28zM30,30H31V31H30zM32,30H33V31H32zM33,30H34V31H33zM35,30H36V31H35zM36,30H37V31H36zM38,30H39V31H38zM39,30H40V31H39zM42,30H43V31H42zM44,30H45V31H44zM45,30H46V31H45zM46,30H47V31H46zM47,30H48V31H47zM52,30H53V31H52zM54,30H55V31H54zM56,30H57V31H56zM57,30H58V31H57zM58,30H59V31H58zM59,30H60V31H59zM60,30H61V31H60zM2,31H3V32H2zM3,31H4V32H3zM4,31H5V32H4zM8,31H9V32H8zM13,31H14V32H13zM14,31H15V32H14zM15,31H16V32H15zM17,31H18V32H17zM18,31H19V32H18zM22,31H23V32H22zM23,31H24V32H23zM24,31H25V32H24zM26,31H27V32H26zM28,31H29V32H28zM32,31H33V32H32zM33,31H34V32H33zM36,31H37V32H36zM37,31H38V32H37zM39,31H40V32H39zM42,31H43V32H42zM44,31H45V32H44zM46,31H47V32H46zM49,31H50V32H49zM52,31H53V32H52zM56,31H57V32H56zM57,31H58V32H57zM58,31H59V32H58zM60,31H61V32H60zM2,32H3V33H2zM4,32H5V33H4zM5,32H6V33H5zM6,32H7V33H6zM7,32H8V33H7zM8,32H9V33H8zM9,32H10V33H9zM14,32H15V33H14zM18,32H19V33H18zM19,32H20V33H19zM27,32H28V33H27zM28,32H29V33H28zM29,32H30V33H29zM30,32H31V33H30zM31,32H32V33H31zM32,32H33V33H32zM33,32H34V33H33zM39,32H40V33H39zM42,32H43V33H42zM45,32H46V33H45zM48,32H49V33H48zM50,32H51V33H50zM51,32H52V33H51zM52,32H53V33H52zM53,32H54V33H53zM54,32H55V33H54zM55,32H56V33H55zM56,32H57V33H56zM57,32H58V33H57zM58,32H59V33H58zM59,32H60V33H59zM60,32H61V33H60zM1,33H2V34H1zM8,33H9V34H8zM12,33H13V34H12zM13,33H14V34H13zM17,33H18V34H17zM18,33H19V34H18zM19,33H20V34H19zM23,33H24V34H23zM25,33H26V34H25zM26,33H27V34H26zM32,33H33V34H32zM35,33H36V34H35zM36,33H37V34H36zM37,33H38V34H37zM38,33H39V34H38zM39,33H40V34H39zM40,33H41V34H40zM41,33H42V34H41zM42,33H43V34H42zM44,33H45V34H44zM45,33H46V34H45zM49,33H50V34H49zM51,33H52V34H51zM52,33H53V34H52zM54,33H55V34H54zM56,33H57V34H56zM58,33H59V34H58zM60,33H61V34H60zM1,34H2V35H1zM4,34H5V35H4zM6,34H7V35H6zM8,34H9V35H8zM12,34H13V35H12zM13,34H14V35H13zM20,34H21V35H20zM21,34H22V35H21zM24,34H25V35H24zM26,34H27V35H26zM27,34H28V35H27zM29,34H30V35H29zM30,34H31V35H30zM31,34H32V35H31zM36,34H37V35H36zM38,34H39V35H38zM39,34H40V35H39zM45,34H46V35H45zM46,34H47V35H46zM52,34H53V35H52zM56,34H57V35H56zM57,34H58V35H57zM58,34H59V35H58zM59,34H60V35H59zM1,35H2V36H1zM18,35H19V36H18zM19,35H20V36H19zM20,35H21V36H20zM21,35H22V36H21zM22,35H23V36H22zM23,35H24V36H23zM24,35H25V36H24zM26,35H27V36H26zM27,35H28V36H27zM30,35H31V36H30zM34,35H35V36H34zM35,35H36V36H35zM36,35H37V36H36zM38,35H39V36H38zM43,35H44V36H43zM44,35H45V36H44zM49,35H50V36H49zM57,35H58V36H57zM58,35H59V36H58zM60,35H61V36H60zM0,36H1V37H0zM1,36H2V37H1zM2,36H3V37H2zM5,36H6V37H5zM6,36H7V37H6zM10,36H11V37H10zM14,36H15V37H14zM15,36H16V37H15zM17,36H18V37H17zM18,36H19V37H18zM24,36H25V37H24zM26,36H27V37H26zM31,36H32V37H31zM33,36H34V37H33zM34,36H35V37H34zM35,36H36V37H35zM36,36H37V37H36zM37,36H38V37H37zM39,36H40V37H39zM40,36H41V37H40zM41,36H42V37H41zM44,36H45V37H44zM45,36H46V37H45zM46,36H47V37H46zM48,36H49V37H48zM49,36H50V37H49zM50,36H51V37H50zM51,36H52V37H51zM52,36H53V37H52zM53,36H54V37H53zM55,36H56V37H55zM56,36H57V37H56zM58,36H59V37H58zM3,37H4V38H3zM5,37H6V38H5zM8,37H9V38H8zM12,37H13V38H12zM13,37H14V38H13zM14,37H15V38H14zM15,37H16V38H15zM17,37H18V38H17zM19,37H20V38H19zM20,37H21V38H20zM21,37H22V38H21zM24,37H25V38H24zM29,37H30V38H29zM30,37H31V38H30zM32,37H33V38H32zM33,37H34V38H33zM34,37H35V38H34zM35,37H36V38H35zM36,37H37V38H36zM38,37H39V38H38zM42,37H43V38H42zM48,37H49V38H48zM49,37H50V38H49zM51,37H52V38H51zM60,37H61V38H60zM1,38H2V39H1zM2,38H3V39H2zM3,38H4V39H3zM4,38H5V39H4zM5,38H6V39H5zM6,38H7V39H6zM7,38H8V39H7zM11,38H12V39H11zM12,38H13V39H12zM13,38H14V39H13zM14,38H15V39H14zM17,38H18V39H17zM18,38H19V39H18zM20,38H21V39H20zM21,38H22V39H21zM22,38H23V39H22zM24,38H25V39H24zM27,38H28V39H27zM30,38H31V39H30zM31,38H32V39H31zM33,38H34V39H33zM34,38H35V39H34zM36,38H37V39H36zM39,38H40V39H39zM40,38H41V39H40zM41,38H42V39H41zM42,38H43V39H42zM48,38H49V39H48zM50,38H51V39H50zM52,38H53V39H52zM54,38H55V39H54zM55,38H56V39H55zM57,38H58V39H57zM60,38H61V39H60zM4,39H5V40H4zM8,39H9V40H8zM10,39H11V40H10zM12,39H13V40H12zM14,39H15V40H14zM16,39H17V40H16zM17,39H18V40H17zM19,39H20V40H19zM20,39H21V40H20zM21,39H22V40H21zM22,39H23V40H22zM23,39H24V40H23zM24,39H25V40H24zM25,39H26V40H25zM26,39H27V40H26zM27,39H28V40H27zM28,39H29V40H28zM31,39H32V40H31zM33,39H34V40H33zM35,39H36V40H35zM36,39H37V40H36zM37,39H38V40H37zM38,39H39V40H38zM43,39H44V40H43zM44,39H45V40H44zM45,39H46V40H45zM46,39H47V40H46zM47,39H48V40H47zM48,39H49V40H48zM50,39H51V40H50zM53,39H54V40H53zM54,39H55V40H54zM55,39H56V40H55zM57,39H58V40H57zM58,39H59V40H58zM60,39H61V40H60zM4,40H5V41H4zM6,40H7V41H6zM7,40H8V41H7zM9,40H10V41H9zM13,40H14V41H13zM19,40H20V41H19zM21,40H22V41H21zM23,40H24V41H23zM24,40H25V41H24zM29,40H30V41H29zM32,40H33V41H32zM33,40H34V41H33zM34,40H35V41H34zM36,40H37V41H36zM40,40H41V41H40zM45,40H46V41H45zM48,40H49V41H48zM50,40H51V41H50zM53,40H54V41H53zM57,40H58V41H57zM60,40H61V41H60zM2,41H3V42H2zM5,41H6V42H5zM8,41H9V42H8zM9,41H10V42H9zM11,41H12V42H11zM12,41H13V42H12zM14,41H15V42H14zM15,41H16V42H15zM17,41H18V42H17zM18,41H19V42H18zM22,41H23V42H22zM24,41H25V42H24zM25,41H26V42H25zM31,41H32V42H31zM34,41H35V42H34zM36,41H37V42H36zM38,41H39V42H38zM40,41H41V42H40zM41,41H42V42H41zM45,41H46V42H45zM48,41H49V42H48zM52,41H53V42H52zM55,41H56V42H55zM56,41H57V42H56zM1,42H2V43H1zM2,42H3V43H2zM3,42H4V43H3zM4,42H5V43H4zM5,42H6V43H5zM6,42H7V43H6zM7,42H8V43H7zM9,42H10V43H9zM12,42H13V43H12zM15,42H16V43H15zM16,42H17V43H16zM17,42H18V43H17zM18,42H19V43H18zM21,42H22V43H21zM22,42H23V43H22zM24,42H25V43H24zM25,42H26V43H25zM28,42H29V43H28zM30,42H31V43H30zM31,42H32V43H31zM32,42H33V43H32zM34,42H35V43H34zM35,42H36V43H35zM36,42H37V43H36zM37,42H38V43H37zM38,42H39V43H38zM39,42H40V43H39zM42,42H43V43H42zM43,42H44V43H43zM45,42H46V43H45zM48,42H49V43H48zM50,42H51V43H50zM51,42H52V43H51zM55,42H56V43H55zM57,42H58V43H57zM58,42H59V43H58zM0,43H1V44H0zM1,43H2V44H1zM2,43H3V44H2zM8,43H9V44H8zM9,43H10V44H9zM10,43H11V44H10zM11,43H12V44H11zM12,43H13V44H12zM16,43H17V44H16zM19,43H20V44H19zM20,43H21V44H20zM22,43H23V44H22zM24,43H25V44H24zM26,43H27V44H26zM30,43H31V44H30zM31,43H32V44H31zM32,43H33V44H32zM36,43H37V44H36zM39,43H40V44H39zM46,43H47V44H46zM47,43H48V44H47zM51,43H52V44H51zM53,43H54V44H53zM54,43H55V44H54zM55,43H56V44H55zM58,43H59V44H58zM0,44H1V45H0zM2,44H3V45H2zM3,44H4V45H3zM4,44H5V45H4zM5,44H6V45H5zM6,44H7V45H6zM7,44H8V45H7zM10,44H11V45H10zM11,44H12V45H11zM13,44H14V45H13zM14,44H15V45H14zM15,44H16V45H15zM16,44H17V45H16zM22,44H23V45H22zM25,44H26V45H25zM26,44H27V45H26zM27,44H28V45H27zM28,44H29V45H28zM32,44H33V45H32zM35,44H36V45H35zM36,44H37V45H36zM37,44H38V45H37zM39,44H40V45H39zM44,44H45V45H44zM45,44H46V45H45zM47,44H48V45H47zM48,44H49V45H48zM50,44H51V45H50zM51,44H52V45H51zM56,44H57V45H56zM57,44H58V45H57zM58,44H59V45H58zM59,44H60V45H59zM60,44H61V45H60zM2,45H3V46H2zM3,45H4V46H3zM4,45H5V46H4zM7,45H8V46H7zM8,45H9V46H8zM10,45H11V46H10zM17,45H18V46H17zM19,45H20V46H19zM21,45H22V46H21zM22,45H23V46H22zM23,45H24V46H23zM28,45H29V46H28zM34,45H35V46H34zM38,45H39V46H38zM44,45H45V46H44zM45,45H46V46H45zM46,45H47V46H46zM48,45H49V46H48zM49,45H50V46H49zM52,45H53V46H52zM60,45H61V46H60zM1,46H2V47H1zM2,46H3V47H2zM4,46H5V47H4zM5,46H6V47H5zM6,46H7V47H6zM7,46H8V47H7zM8,46H9V47H8zM9,46H10V47H9zM12,46H13V47H12zM13,46H14V47H13zM14,46H15V47H14zM15,46H16V47H15zM20,46H21V47H20zM22,46H23V47H22zM27,46H28V47H27zM28,46H29V47H28zM29,46H30V47H29zM31,46H32V47H31zM35,46H36V47H35zM37,46H38V47H37zM43,46H44V47H43zM48,46H49V47H48zM51,46H52V47H51zM52,46H53V47H52zM53,46H54V47H53zM57,46H58V47H57zM58,46H59V47H58zM59,46H60V47H59zM2,47H3V48H2zM4,47H5V48H4zM9,47H10V48H9zM10,47H11V48H10zM11,47H12V48H11zM13,47H14V48H13zM15,47H16V48H15zM18,47H19V48H18zM21,47H22V48H21zM24,47H25V48H24zM33,47H34V48H33zM39,47H40V48H39zM41,47H42V48H41zM42,47H43V48H42zM44,47H45V48H44zM45,47H46V48H45zM46,47H47V48H46zM48,47H49V48H48zM52,47H53V48H52zM54,47H55V48H54zM0,48H1V49H0zM5,48H6V49H5zM6,48H7V49H6zM7,48H8V49H7zM8,48H9V49H8zM11,48H12V49H11zM16,48H17V49H16zM18,48H19V49H18zM20,48H21V49H20zM23,48H24V49H23zM25,48H26V49H25zM26,48H27V49H26zM27,48H28V49H27zM28,48H29V49H28zM31,48H32V49H31zM33,48H34V49H33zM36,48H37V49H36zM37,48H38V49H37zM38,48H39V49H38zM39,48H40V49H39zM40,48H41V49H40zM45,48H46V49H45zM46,48H47V49H46zM50,48H51V49H50zM52,48H53V49H52zM53,48H54V49H53zM54,48H55V49H54zM56,48H57V49H56zM58,48H59V49H58zM59,48H60V49H59zM1,49H2V50H1zM2,49H3V50H2zM7,49H8V50H7zM9,49H10V50H9zM11,49H12V50H11zM13,49H14V50H13zM17,49H18V50H17zM18,49H19V50H18zM19,49H20V50H19zM20,49H21V50H20zM21,49H22V50H21zM22,49H23V50H22zM25,49H26V50H25zM27,49H28V50H27zM28,49H29V50H28zM30,49H31V50H30zM32,49H33V50H32zM36,49H37V50H36zM37,49H38V50H37zM38,49H39V50H38zM40,49H41V50H40zM42,49H43V50H42zM44,49H45V50H44zM45,49H46V50H45zM46,49H47V50H46zM48,49H49V50H48zM51,49H52V50H51zM58,49H59V50H58zM59,49H60V50H59zM60,49H61V50H60zM2,50H3V51H2zM3,50H4V51H3zM4,50H5V51H4zM5,50H6V51H5zM6,50H7V51H6zM11,50H12V51H11zM12,50H13V51H12zM13,50H14V51H13zM15,50H16V51H15zM16,50H17V51H16zM17,50H18V51H17zM18,50H19V51H18zM20,50H21V51H20zM22,50H23V51H22zM24,50H25V51H24zM26,50H27V51H26zM29,50H30V51H29zM30,50H31V51H30zM36,50H37V51H36zM38,50H39V51H38zM39,50H40V51H39zM41,50H42V51H41zM42,50H43V51H42zM45,50H46V51H45zM48,50H49V51H48zM51,50H52V51H51zM54,50H55V51H54zM57,50H58V51H57zM58,50H59V51H58zM60,50H61V51H60zM0,51H1V52H0zM1,51H2V52H1zM2,51H3V52H2zM4,51H5V52H4zM11,51H12V52H11zM12,51H13V52H12zM13,51H14V52H13zM14,51H15V52H14zM18,51H19V52H18zM19,51H20V52H19zM23,51H24V52H23zM24,51H25V52H24zM28,51H29V52H28zM31,51H32V52H31zM36,51H37V52H36zM37,51H38V52H37zM40,51H41V52H40zM41,51H42V52H41zM42,51H43V52H42zM44,51H45V52H44zM45,51H46V52H45zM46,51H47V52H46zM48,51H49V52H48zM49,51H50V52H49zM50,51H51V52H50zM53,51H54V52H53zM55,51H56V52H55zM56,51H57V52H56zM57,51H58V52H57zM58,51H59V52H58zM0,52H1V53H0zM1,52H2V53H1zM2,52H3V53H2zM3,52H4V53H3zM6,52H7V53H6zM8,52H9V53H8zM10,52H11V53H10zM11,52H12V53H11zM14,52H15V53H14zM15,52H16V53H15zM20,52H21V53H20zM22,52H23V53H22zM23,52H24V53H23zM24,52H25V53H24zM27,52H28V53H27zM28,52H29V53H28zM29,52H30V53H29zM30,52H31V53H30zM31,52H32V53H31zM32,52H33V53H32zM33,52H34V53H33zM36,52H37V53H36zM39,52H40V53H39zM42,52H43V53H42zM45,52H46V53H45zM48,52H49V53H48zM50,52H51V53H50zM52,52H53V53H52zM53,52H54V53H53zM54,52H55V53H54zM55,52H56V53H55zM56,52H57V53H56zM57,52H58V53H57zM8,53H9V54H8zM10,53H11V54H10zM12,53H13V54H12zM13,53H14V54H13zM15,53H16V54H15zM17,53H18V54H17zM18,53H19V54H18zM20,53H21V54H20zM21,53H22V54H21zM22,53H23V54H22zM24,53H25V54H24zM25,53H26V54H25zM28,53H29V54H28zM32,53H33V54H32zM33,53H34V54H33zM34,53H35V54H34zM36,53H37V54H36zM37,53H38V54H37zM39,53H40V54H39zM41,53H42V54H41zM42,53H43V54H42zM45,53H46V54H45zM46,53H47V54H46zM47,53H48V54H47zM48,53H49V54H48zM49,53H50V54H49zM50,53H51V54H50zM52,53H53V54H52zM56,53H57V54H56zM57,53H58V54H57zM58,53H59V54H58zM59,53H60V54H59zM60,53H61V54H60zM0,54H1V55H0zM1,54H2V55H1zM2,54H3V55H2zM3,54H4V55H3zM4,54H5V55H4zM5,54H6V55H5zM6,54H7V55H6zM9,54H10V55H9zM10,54H11V55H10zM11,54H12V55H11zM12,54H13V55H12zM15,54H16V55H15zM17,54H18V55H17zM18,54H19V55H18zM21,54H22V55H21zM22,54H23V55H22zM23,54H24V55H23zM25,54H26V55H25zM26,54H27V55H26zM27,54H28V55H27zM28,54H29V55H28zM30,54H31V55H30zM32,54H33V55H32zM33,54H34V55H33zM35,54H36V55H35zM37,54H38V55H37zM39,54H40V55H39zM40,54H41V55H40zM41,54H42V55H41zM43,54H44V55H43zM44,54H45V55H44zM45,54H46V55H45zM46,54H47V55H46zM50,54H51V55H50zM51,54H52V55H51zM52,54H53V55H52zM54,54H55V55H54zM56,54H57V55H56zM57,54H58V55H57zM58,54H59V55H58zM0,55H1V56H0zM6,55H7V56H6zM13,55H14V56H13zM14,55H15V56H14zM15,55H16V56H15zM16,55H17V56H16zM17,55H18V56H17zM22,55H23V56H22zM27,55H28V56H27zM28,55H29V56H28zM32,55H33V56H32zM34,55H35V56H34zM36,55H37V56H36zM37,55H38V56H37zM41,55H42V56H41zM42,55H43V56H42zM44,55H45V56H44zM46,55H47V56H46zM48,55H49V56H48zM49,55H50V56H49zM51,55H52V56H51zM52,55H53V56H52zM56,55H57V56H56zM57,55H58V56H57zM58,55H59V56H58zM0,56H1V57H0zM2,56H3V57H2zM3,56H4V57H3zM4,56H5V57H4zM6,56H7V57H6zM9,56H10V57H9zM10,56H11V57H10zM13,56H14V57H13zM14,56H15V57H14zM15,56H16V57H15zM16,56H17V57H16zM17,56H18V57H17zM18,56H19V57H18zM20,56H21V57H20zM22,56H23V57H22zM24,56H25V57H24zM25,56H26V57H25zM26,56H27V57H26zM28,56H29V57H28zM29,56H30V57H29zM30,56H31V57H30zM31,56H32V57H31zM32,56H33V57H32zM33,56H34V57H33zM34,56H35V57H34zM35,56H36V57H35zM38,56H39V57H38zM39,56H40V57H39zM40,56H41V57H40zM42,56H43V57H42zM43,56H44V57H43zM45,56H46V57H45zM46,56H47V57H46zM47,56H48V57H47zM48,56H49V57H48zM50,56H51V57H50zM52,56H53V57H52zM53,56H54V57H53zM54,56H55V57H54zM55,56H56V57H55zM56,56H57V57H56zM57,56H58V57H57zM60,56H61V57H60zM0,57H1V58H0zM2,57H3V58H2zM3,57H4V58H3zM4,57H5V58H4zM6,57H7V58H6zM11,57H12V58H11zM12,57H13V58H12zM16,57H17V58H16zM19,57H20V58H19zM21,57H22V58H21zM22,57H23V58H22zM23,57H24V58H23zM26,57H27V58H26zM28,57H29V58H28zM29,57H30V58H29zM30,57H31V58H30zM33,57H34V58H33zM40,57H41V58H40zM46,57H47V58H46zM49,57H50V58H49zM50,57H51V58H50zM51,57H52V58H51zM52,57H53V58H52zM56,57H57V58H56zM58,57H59V58H58zM60,57H61V58H60zM0,58H1V59H0zM2,58H3V59H2zM3,58H4V59H3zM4,58H5V59H4zM6,58H7V59H6zM9,58H10V59H9zM11,58H12V59H11zM20,58H21V59H20zM21,58H22V59H21zM24,58H25V59H24zM25,58H26V59H25zM26,58H27V59H26zM30,58H31V59H30zM31,58H32V59H31zM32,58H33V59H32zM33,58H34V59H33zM35,58H36V59H35zM37,58H38V59H37zM39,58H40V59H39zM44,58H45V59H44zM49,58H50V59H49zM50,58H51V59H50zM51,58H52V59H51zM54,58H55V59H54zM56,58H57V59H56zM58,58H59V59H58zM60,58H61V59H60zM0,59H1V60H0zM6,59H7V60H6zM10,59H11V60H10zM12,59H13V60H12zM13,59H14V60H13zM15,59H16V60H15zM17,59H18V60H17zM21,59H22V60H21zM22,59H23V60H22zM23,59H24V60H23zM24,59H25V60H24zM26,59H27V60H26zM29,59H30V60H29zM31,59H32V60H31zM33,59H34V60H33zM34,59H35V60H34zM35,59H36V60H35zM36,59H37V60H36zM37,59H38V60H37zM41,59H42V60H41zM44,59H45V60H44zM47,59H48V60H47zM48,59H49V60H48zM50,59H51V60H50zM53,59H54V60H53zM56,59H57V60H56zM60,59H61V60H60zM0,60H1V61H0zM1,60H2V61H1zM2,60H3V61H2zM3,60H4V61H3zM4,60H5V61H4zM5,60H6V61H5zM6,60H7V61H6zM8,60H9V61H8zM11,60H12V61H11zM12,60H13V61H12zM14,60H15V61H14zM15,60H16V61H15zM16,60H17V61H16zM17,60H18V61H17zM19,60H20V61H19zM20,60H21V61H20zM23,60H24V61H23zM24,60H25V61H24zM29,60H30V61H29zM30,60H31V61H30zM31,60H32V61H31zM32,60H33V61H32zM33,60H34V61H33zM34,60H35V61H34zM35,60H36V61H35zM37,60H38V61H37zM41,60H42V61H41zM42,60H43V61H42zM44,60H45V61H44zM45,60H46V61H45zM46,60H47V61H46zM47,60H48V61H47zM48,60H49V61H48zM49,60H50V61H49zM52,60H53V61H52zM53,60H54V61H53zM56,60H57V61H56zM57,60H58V61H57zM58,60H59V61H58zM60,60H61V61H60z" style="fill:#000000;fill-opacity:1;fill-rule:nonzero;stroke:none" transform="translate(237.40157,61) scale(2.6603845901639342)" /><g id="swiss-cross" transform="translate(305.4890105263158,129.0874405263158) scale(1.305428947368421)"><polygon fill="black" points="18.3,0.7 1.6,0.7 0.7,0.7 0.7,1.6 0.7,18.3 0.7,19.1 1.6,19.1 18.3,19.1 19.1,19.1 19.1,18.3 19.1,1.6 19.1,0.7" /><rect fill="white" height="11" width="3.3" x="8.3" y="4" /><rect fill="white" height="3.3" width="11" x="4.4" y="7.9" /><polygon fill="none" points="0.7,1.6 0.7,18.3 0.7,19.1 1.6,19.1 18.3,19.1 19.1,19.1 19.1,18.3 19.1,1.6 19.1,0.7 18.3,0.7 1.6,0.7 0.7,0.7" stroke="white" stroke-width="1.4357" /></g><text font-family="Arial,Helvetica" font-size="9" font-weight="bold" x="237.40157" y="258.66141">Monnaie</text><text font-family="Arial,Helvetica" font-size="9" font-weight="bold" x="279.92125" y="258.66141">Montant</text><text font-family="Arial,Helvetica" font-size="10" x="237.40157" y="276.37795">CHF</text><text font-family="Arial,Helvetica" font-size="10" x="279.92125" y="276.37795">389.70</text><text font-family="Arial,Helvetica" font-size="9" font-weight="bold" x="418.11023" y="38.97638">Compte / Payable à</text><text font-family="Arial,Helvetica" font-size="10" x="418.11023" y="51.37795">CH93 0076 2011 6238 5295 7</text><text font-family="Arial,Helvetica" font-size="10" x="418.11023" y="63.77953">CSS Assurance SA</text><text font-family="Arial,Helvetica" font-size="10" x="418.11023" y="76.1811">Tribschenstrasse 21</text><text font-family="Arial,Helvetica" font-size="10" x="418.11023" y="88.58267">CH-6005 Lucerne</text><text font-family="Arial,Helvetica" font-size="9" font-weight="bold" x="418.11023" y="111.61417">Informations supplémentaires</text><text font-family="Arial,Helvetica" font-size="10" x="418.11023" y="124.01574">Prime assurance maladie 2024-09</text><text font-family="Arial,Helvetica" font-size="9" font-weight="bold" x="418.11023" y="147.04724">Payable par</text><text font-family="Arial,Helvetica" font-size="10" x="418.11023" y="159.44881">BECO Fiduciaire SA</text><text font-family="Arial,Helvetica" font-size="10" x="418.11023" y="171.85039">Rue du Rhone 69</text><text font-family="Arial,Helvetica" font-size="10" x="418.11023" y="184.25196">CH-1204 Geneve</text></g></svg>